<?xml version="1.0" encoding="UTF-8"?>
<svg id="Layer_1" xmlns="http://www.w3.org/2000/svg" width="392" height="490" version="1.1" xmlns:cc="http://creativecommons.org/ns#" xmlns:dc="http://purl.org/dc/elements/1.1/" xmlns:inkscape="http://www.inkscape.org/namespaces/inkscape" xmlns:rdf="http://www.w3.org/1999/02/22-rdf-syntax-ns#" xmlns:sodipodi="http://sodipodi.sourceforge.net/DTD/sodipodi-0.dtd" xmlns:svg="http://www.w3.org/2000/svg" viewBox="0 0 392 490">
  <!-- Generator: Adobe Illustrator 30.1.0, SVG Export Plug-In . SVG Version: 2.1.1 Build 136)  -->
  <g>
    <path d="M135.5347648,302.986716c4.9419291,2.9856129,15.50895,7.6873675,15.50895,7.6873675l-.2820162-116.4491481-64.291505-45.2699373s-5.5646467,9.8242945-8.0364002,17.2253317c-2.4685371,7.391223-1.9738708,15.8017769-1.9738708,15.8017769l44.1298639,31.6035539v78.5818428s9.684863,7.6414246,14.9449783,10.8192126Z" fill="blue"/>
    <path d="M241.2482439,194.1904016l-.2820162,116.4491481s13.1591183-5.3057594,18.1010474-8.291311c5.2601153-3.1778493,11.5553217-9.6113256,11.5553217-9.6113256v-78.5817814l44.1640918-31.2354587s-.3969589-11.027765-2.0564669-16.4057818c-2.5445789-8.2463495-6.9910528-17.1907979-6.9910528-17.1907979l-64.4909251,44.8673083Z" fill="blue"/>
    <path d="M216.2298793,180.8619346l77.1639948-54.3577348s-8.4698932-12.347841-13.7579248-17.5641682c-4.1672493-4.1106923-13.9572843-10.6213944-13.9572843-10.6213944l-69.7866034,49.5260029-69.3877632-48.7206836s-9.0662115,4.7561009-15.0852278,11.3921185c-6.9908707,7.7074867-12.630042,16.1894392-12.630042,16.1894392l78.3603334,54.5591106v136.9010322s12.0755376,1.684184,18.7426996,1.6106386c6.5468181-.0722573,19.540198-1.6106386,19.540198-1.6106386l.7976198-137.3037225Z" fill="blue"/>
    <ellipse cx="196.1846223" cy="103.6721797" rx="26.5262896" ry="26.7837218" fill="blue"/>
    <path d="M174.7261429,29.6470391c-.0276538.0035592-.0550634.0079774-.0827783.0115366-9.1408341,1.1804152-18.0461529,3.1182573-26.6630298,5.7307451l-11.5081341-26.124878c-4.0028425,1.2812377-7.9522088,2.6826892-11.8388809,4.2107979l-17.038773,7.667544c-3.3722381,1.716008-6.6881918,3.5266407-9.944931,5.4293821l11.57852,26.2847336c-3.0043753,1.8518699-5.9445914,3.7992236-8.8198546,5.8338995-1.6583126,1.1735423-3.2932447,2.3781966-4.9066885,3.6104038-2.7218548,2.0786132-5.3785735,4.2395781-7.967104,6.47909-.1333854.1154274-.2696399.2276638-.4026589.3435207l-5.8840338-5.3547624-15.4179426-14.0314521c-1.7091028,1.5271269-3.4006244,3.0737677-5.0554574,4.659314l-20.6636192,23.1955019c-.9661739,1.2720943-1.9172694,2.5560935-2.8530425,3.8522428l1.2505258,1.138012,46.7222332,34.0565365s38.409304-55.8937878,110.5447737-56.523453c75.1533972-.6559908,111.7752765,56.9261908,111.7752765,56.9261908l45.7561814-34.4510515.4696874-.4274679.9056774-.8241919c-.8868752-1.2266843-1.7869974-2.4427525-2.7010992-3.6478364l-7.0310868-7.8926305-12.9500389-14.5368534-.8338874-.9360602c-1.6618533-1.5907009-3.3599679-3.1430487-5.0765793-4.6748393l-21.3102176,19.3935783c-1.9745916-1.7167444-3.9935635-3.3821877-6.0465991-5.0058416-3.0901449-2.4439798-6.267097-4.7805096-9.5265833-7.0034531-2.0073732-1.3690509-4.0442927-2.6969259-6.1127729-3.9784704-.140894-.0873222-.2794072-.1780196-.4206064-.2649123l11.000293-24.9720157.57957-1.315602c-3.1831178-1.8567791-6.4228252-3.625745-9.7161919-5.3043204l-17.2366839-7.7565845c-3.9008348-1.5316065-7.8639364-2.9371695-11.8816131-4.2201254l-11.5107591,26.1311372c-.6603338-.19962-1.3255513-.3877648-1.9892426-.5794687-5.7506485-1.6610864-11.6242434-3.0268236-17.6098577-4.0633381-2.3291463-.4033515-4.6742867-.7593292-7.0357873-1.0629628-.0384589-.0049706-.0764905-.0110457-.1149495-.0159549V1.1444553c-6.9486138-.7493881-14.0026538-1.1444553-21.1492395-1.1444553-7.192187,0-14.2904854.4008355-21.2820144,1.1596738v28.4873652Z" fill="blue"/>
    <path d="M62.4783555,298.516708c.0169007.0222359.0344212.0438302.0513524.0661191,5.5898525,7.3479943,11.7160798,14.112746,18.2807267,20.2896822l-16.8080174,23.0564823c3.1079295,2.8355817,6.2929405,5.5646159,9.5559887,8.1758758l15.1412653,10.9632607c3.1681056,2.0705588,6.3897892,4.0449261,9.6614128,5.9218152l16.9108796-23.1975356c3.1015078,1.6831637,6.2533982,3.2628675,9.4482257,4.742503,1.8426562.8533622,3.7004912,1.670864,5.5713774,2.4559283,3.1560686,1.3244419,6.3506902,2.5511417,9.5790528,3.679351.1663786.0581226.3314359.1203323.4980024.177922l-1.682487,7.7872703-4.4089343,20.4051761c2.1734156.7206779,4.3548933,1.4163306,6.5516264,2.0606691l30.364013,6.3472177c1.5816988.2030101,3.1661396.3869733,4.7534125.5515548l.3575521-1.6550039,6.0509423-57.6033972s-67.4758959-5.409013-104.087425-67.7390024c-38.1432283-64.9376944-6.7247858-125.5324335-6.7247858-125.5324335l-52.6308624-22.5106519-.6040154-.1941581-1.164631-.3744241c-.615957,1.3835339-1.2161222,2.7732638-1.7998112,4.1696418l-3.3007255,10.052343-6.0793631,18.5146678-.3914608,1.1922054c-.5428416,2.2385587-1.0344299,4.4894313-1.499016,6.7460886l27.4038779,8.809707c-.4953267,2.5731727-.9241584,5.1592362-1.2998678,7.753987-.5656084,3.9055736-.9950167,7.8328087-1.2850619,11.7749258-.1786592,2.4277946-.3069849,4.8606602-.379518,7.2977689-.0049666.1660181-.0140385.3316562-.0184815.4977246l-27.0665908,2.9329904-1.4259712.1544833c-.012001,3.6927141.0801304,7.3906658.277155,11.0900219l1.9195657,18.8471973c.6276845,4.1534169,1.3953567,8.2978866,2.2962029,12.4284475l28.3228695-3.0692457c.1577702.6732657.3278925,1.3450349.4941779,2.0172583,1.4407693,5.8245961,3.1980827,11.6082883,5.2957306,17.3246505.8162289,2.2243833,1.681368,4.4389694,2.599893,6.6415912.0149368.0358843.028706.0719498.0436957.1078034l-24.6031282,14.2441122c2.8271169,6.4090995,6.0129472,12.7325943,9.5862401,18.9389251,3.5960935,6.2459325,7.491414,12.2099112,11.6425299,17.9021666l24.6023862-14.2436826Z" fill="blue"/>
    <path d="M350.8046794,261.5615557c.0107531-.0257951.0206422-.0518076.0314258-.0776557,3.5509816-8.5284095,6.3300731-17.2310033,8.3823031-26.0204273l28.3161514,3.0683957c.894913-4.1168194,1.6592683-8.2473051,2.2828922-12.3866738l1.8975078-18.6308047c.2041325-3.7865668.2984027-7.5715668.2835182-11.3511973l-28.4893996-3.087198c-.0971325-3.5350336-.3088068-7.0620911-.6283712-10.5764025-.1843436-2.0269046-.4072465-4.0490606-.6646888-6.0663321-.4342139-3.4030551-.9721167-6.7907198-1.6119488-10.158441-.0329932-.1735499-.0617961-.347996-.0953434-.5214427l7.5665208-2.4325079,19.826877-6.373724c-.4643127-2.2478047-.9542689-4.4900983-1.4961689-6.719983l-9.7003939-29.5427196c-.6155249-1.4751045-1.2488702-2.9430668-1.90037-4.4037976l-1.608078.5169919-52.7731755,23.5468606s29.0665918,61.3028008-6.4573487,124.2624554c-37.0101689,65.5936852-105.0504907,68.6062426-105.0504907,68.6062426l6.874681,56.9617034.134328.6216259.2589537,1.1986161c1.5028322-.1568496,3.0031196-.3305113,4.5009104-.5218054l10.3318123-2.1597125,19.029402-3.9778143,1.2253482-.2561452c2.2046949-.6478578,4.3943978-1.3463826,6.5755954-2.0712493l-6.0936603-28.2032852c2.4699183-.8564283,4.9177219-1.7770485,7.3464669-2.7481454,3.6557532-1.4615939,7.2621137-3.052299,10.8116452-4.7714727,2.1860325-1.0587437,4.3512776-2.1637343,6.4922909-3.3192985.1458606-.0786959.2934457-.1536367.4390879-.2328124l16.0662978,22.0390252.8464011,1.1611188c3.1951188-1.835935,6.3426948-3.7649208,9.439037-5.7857014l15.3171183-11.0906128c3.2731503-2.6218104,6.4685797-5.3607171,9.5854102-8.2083221l-16.8121105-23.0618916c.5025636-.4736457.9976588-.9572701,1.4950647-1.4377895,4.3098791-4.1635097,8.4261607-8.5814647,12.3141271-13.2613124,1.5129174-1.8210318,2.9929187-3.6796401,4.4358943-5.5786285.0235222-.0309137.0477846-.0609041.0712538-.0918485l24.6031282,14.2441122c4.1214968-5.6597114,7.9897066-11.5881389,11.5629994-17.7944697,3.5960935-6.2459325,6.7990713-12.6107468,9.6394845-19.0618404l-24.6023862-14.2436826Z" fill="blue"/>
  </g>
  <g>
    <path d="M80.3982544,432.9708557v42.0467529c0,3.3515625.3217773,6.0097351.9667969,7.9745789.6435547,1.9658203,1.8364182,3.8505859,3.5761642,5.6542969h-27.5477753c2.1269455-1.6103516,3.4467697-3.6083984,3.9633675-5.9931335.2568359-1.0947266.3867188-3.5429688.3867188-7.3456726v-42.336792c-1.4833946-.2568359-3.1581955-.3867188-5.0263519-.3867188-2.6430588,0-4.8329964.3232422-6.5727348.9667969-1.4184532.5166016-3.3832932,1.6435547-5.8964691,3.3828125l3.9633675-15.7548523c.449707.0644531.9980431.0966797,1.6430626.0966797l10.8256531.1933594h21.4584351c9.1489029,0,14.7553329-.1933594,16.8183136-.5800781l-3.4794846,16.0448914c-.9033203-1.6748047-2.0151291-2.8505859-3.3349533-3.5273438-1.3212891-.6767578-3.2714767-1.015625-5.847641-1.015625-1.9980392,0-3.9633713.1933594-5.8964691.5800781v-.0000305Z" fill="blue"/>
    <path d="M124.9572144,457.9092712v19.4286499c2.5766602.9658203,6.2177582,1.4492188,10.9223328,1.4492188,6.5077972,0,11.4692078-1.8681641,14.8856964-5.6064148l-3.7700043,15.4657898h-45.0428467c2.1264572-1.6103516,3.4467697-3.6396484,3.9633713-6.0898132.2563477-1.0947266.3862305-3.5429688.3862305-7.3456726v-40.3065186c0-4.8330078-.3710938-8.0224304-1.1113281-9.5693054-.7416992-1.546875-1.8212814-2.8349609-3.2382736-3.8662109h36.7303619c1.4814453,0,2.6416016-.1933594,3.4799652-.5800781v14.8857117c-1.418457-1.8037109-2.9648285-2.9970703-4.6396332-3.5771484-1.3535156-.4492188-3.3832855-.6757812-6.0898285-.6757812h-6.476059v16.4316101h10.7289734c1.2236328,0,2.2231445-.1933594,2.9965668-.5800781v14.2089539c-.9033203-1.546875-1.9663086-2.5761719-3.1899261-3.0927734-.9663086-.3867188-2.480957-.5800781-4.5429535-.5800781h-5.9926605l.0000153-.000061Z" fill="blue"/>
    <path d="M158.3028259,486.3271484l-3.3832855-14.5956726c6.5727386,5.2841797,13.789032,7.9257507,21.6517944,7.9257507,7.0224457,0,10.535614-2.4794922,10.535614-7.4423523,0-1.9970703-.6616211-3.6083984-1.9814453-4.8330078-1.3217773-1.2236328-4.269516-2.9638672-8.8442078-5.2197266-7.2826996-3.5429688-12.0507507-6.3466492-14.3056183-8.4091492-3.9311371-3.5429688-5.8959808-8.1191101-5.8959808-13.7255554,0-6.0566101,2.2866211-10.8896179,6.8627777-14.4989929,4.5742035-3.6083984,10.6957703-5.4130859,18.3647003-5.4130859,6.1215668,0,11.8891296,1,17.3026886,2.9970703v11.8886414c-5.285141-3.0283203-10.0863953-4.5429688-14.4027863-4.5429688-2.7714844,0-4.9780121.5800781-6.6210785,1.7392578-1.6430664,1.1601562-2.4648438,2.7070312-2.4648438,4.6396484,0,1.6123047.6435547,2.9814453,1.9331055,4.1083984,1.2885742,1.1279297,3.7050629,2.4648438,7.2494965,4.0117188,6.9594574,2.9648438,12.0483093,5.8954773,15.2729034,8.7958679,4.3808441,3.9306641,6.5722504,8.7636414,6.5722504,14.4989929,0,6.9589539-2.7402344,12.4364929-8.2167664,16.4316101-4.8974457,3.5449219-11.6635437,5.3164062-20.2977905,5.3164062-6.3159027,0-12.7587585-1.2255859-19.3314819-3.6728516h-.0000458Z" fill="blue"/>
    <path d="M212.2377319,421.4689331h23.0048218c6.7665863,0,11.5028992.1933594,14.2089386.5800781,5.1542816.7099609,9.5693054,2.3193359,13.242157,4.8330078,4.4462891,3.0292969,7.9091492,7.0243835,10.3905945,11.985321,2.4804688,4.9628906,3.7216797,10.375946,3.7216797,16.2382507,0,6.5097351-1.4833984,12.4374695-4.4462891,17.7850952-2.9648438,5.3496094-6.9931335,9.375946-12.0820007,12.0829773-3.2236328,1.6757812-7.0898285,2.7714844-11.5995789,3.2861328-2.3847656.2587891-6.4130707.3867188-12.0820007.3867188h-24.3583374c2.1269531-1.6103516,3.4462738-3.6083984,3.9628754-5.9931335.2568359-1.0947266.3867188-3.5429688.3867188-7.3456726v-40.1131592c0-5.0263672-.3710938-8.3124695-1.1113281-9.8593445-.7412109-1.546875-1.8212891-2.8349609-3.238266-3.8662109l.0000153-.000061ZM235.2425537,432.3907776v45.0428467c1.9335938.5800781,3.8017426.8701172,5.6064301.8701172,5.5410004,0,9.6659851-2.109375,12.3720398-6.3310242,2.7060547-4.2197266,4.0595703-9.7460632,4.0595703-16.5770874,0-7.1523132-1.4492188-12.9032898-4.3495941-17.2528687-2.8993988-4.3496094-6.7656097-6.5243835-11.5986023-6.5243835-1.8046875,0-3.8349457.2578125-6.0898285.7724609l-.0000153-.000061Z" fill="blue"/>
    <path d="M296.0402374,421.4689331h23.6815796l19.7177124,53.6453552c1.2880859,3.609375,2.4169922,6.1864929,3.3837891,7.7323914.9658203,1.546875,2.609375,3.4804688,4.9287109,5.7997742h-29.4803772c2.7695312-2.1894531,4.15625-4.2851562,4.15625-6.2831726,0-1.0947266-.4833984-3.0927734-1.4501953-5.992157l-2.7060547-8.1191101h-20.2987671l-2.8027344,8.1191101c-1.03125,2.9648438-1.546875,5.0595703-1.546875,6.282196,0,1.6113281,1.2568359,3.6103516,3.7705078,5.9931335h-20.9755249c2.1269531-2.2548828,3.625-4.171875,4.4951172-5.750946.8701172-1.578125,1.9814453-4.3652344,3.3339844-8.3612976l13.7255554-39.9197998c1.2890625-3.7363281,1.9335938-6.0898132,1.9335938-7.0556335,0-1.9335938-1.2900391-3.9638672-3.8662109-6.0898132l-.000061-.0000305ZM314.8888092,458.7793884l-7.1532898-20.2020874-6.7655945,20.2020874h13.9189148-.0000305Z" fill="blue"/>
  </g>
</svg>